# xmcd CD database file
#
# Track frame offsets:
#	150
#	23305
#	42330
#	60498
#	78610
#	102253
#	119895
#	132610
#	152553
#	169960
#	194183
#	213213
#	236180
#	251783
#	274065
#	292673
#	309673
#	328100
#
# Disc length: 4598 seconds
#
# Revision: 5
# Processed by: cddbd v1.5PL3 Copyright (c) Steve Scherf et al.
# Submitted via: CDex 1.51
#
DISCID=1011f412
DTITLE=Little River Band - Forever Blue
DYEAR=1995
DGENRE=Pop
TTITLE0=Forever Blue
TTITLE1=It's A Long Way There
TTITLE2=Help Is On Its Way
TTITLE3=Happy Anniversary
TTITLE4=The Night Owls
TTITLE5=Lonesome Loser
TTITLE6=The Other Guy
TTITLE7=Middle Man
TTITLE8=Home On Monday
TTITLE9=Days On The Road
TTITLE10=Reminiscing
TTITLE11=Cool Change
TTITLE12=Broke Again
TTITLE13=Lady
TTITLE14=Man On You Mind
TTITLE15=Take It Easy On Me
TTITLE16=Ballerina
TTITLE17=Curiosity Killed The Cat
EXTD=YEAR: 1995
EXTT0=
EXTT1=
EXTT2=
EXTT3=
EXTT4=
EXTT5=
EXTT6=
EXTT7=
EXTT8=
EXTT9=
EXTT10=
EXTT11=
EXTT12=
EXTT13=
EXTT14=
EXTT15=
EXTT16=
EXTT17=
PLAYORDER=
